<svg xmlns="http://www.w3.org/2000/svg" xmlns:xlink="http://www.w3.org/1999/xlink" fill="#ffffff" version="1.1" x="0px" y="0px" viewBox="0 0 66 82.5" enable-background="new 0 0 66 66" xml:space="preserve"><g><path d="M39.9853668,6.2416525h-2.5947266V5.3910666c0-2.4931197-2.1016502-4.5583396-4.7001953-4.3808594   c-2.2880878,0.1582031-4.0810566,2.1533203-4.0810566,4.5429688v0.6884766h-2.59375   c-1.6568604,0-3.0667725,1.0404053-3.633667,2.4990234H8.4423971v56.2597656h49.1152344V8.7406759H43.6190948   C43.0522003,7.2820578,41.6422272,6.2416525,39.9853668,6.2416525z M26.0156384,8.2416525h4.59375V5.5531759   c0-1.3203125,0.9951172-2.4628904,2.2167988-2.5468748c1.4131699-0.0980568,2.5644531,1.0277083,2.5644531,2.3847654v2.8505859   h4.5947266c1.0507813,0,1.90625,0.8554688,1.90625,1.90625v2.4677734H24.1093884v-2.4677734   C24.1093884,9.0971212,24.9648571,8.2416525,26.0156384,8.2416525z M51.6826324,14.6156759v44.5097656H14.315444V14.6156759   C28.2958355,14.6156759,37.6985741,14.6156759,51.6826324,14.6156759z M55.5576324,63.0004425H10.4423971V10.7406759h11.6669912   v1.875H12.315444v48.5097656h41.3671875V12.6156759h-9.7910156v-1.875h11.6660156V63.0004425z"/><path d="M18.393568,29.2191925c-0.5527344,0-1,0.4472656-1,1s0.4472656,1,1,1h3.671875   c0.3925781,0,0.7490234-0.2294922,0.9111328-0.5878906l4.2421875-9.3652344l2.5507813,9.2197266   c0.1142578,0.4121094,0.4775391,0.7060547,0.9033203,0.7314453c0.4306641,0.0166016,0.8222656-0.2226563,0.9853516-0.6171875   l1.3076191-3.1796875l2.1083984,8.0517578c0.1162109,0.4404297,0.5136719,0.7470703,0.9677734,0.7470703   c0.0048828,0,0.0107422,0,0.0166016,0c0.4599609-0.0078125,0.8564453-0.3291016,0.9580078-0.7783203l3.0449219-13.3710938   l2.7871094,8.4619141c0.1357422,0.4101563,0.5185547,0.6875,0.9501953,0.6875h3.8066406c0.5527344,0,1-0.4472656,1-1   s-0.4472656-1-1-1h-3.0830078l-3.6865234-11.1923828c-0.140625-0.4277344-0.5566406-0.7226563-0.9970703-0.6865234   c-0.4492188,0.0214844-0.828125,0.3388672-0.9277344,0.7773438l-2.9365234,12.8955078l-1.8300781-6.9873047   c-0.109375-0.4160156-0.4716797-0.7158203-0.9003906-0.7451172c-0.4462891-0.015625-0.8291016,0.2207031-0.9921875,0.6171875   l-1.3330097,3.2412109l-2.5087891-9.0664063c-0.1123047-0.4052734-0.4667969-0.6972656-0.8867188-0.7304688   c-0.4052734-0.0292969-0.8144531,0.2011719-0.9882813,0.5849609l-5.1142578,11.2919922H18.393568z"/><rect x="18.8955078" y="38.6566772" width="1.9570313" height="2"/><rect x="24.1455078" y="38.6566772" width="1.9570313" height="2"/><rect x="29.3955078" y="38.6566772" width="1.9570313" height="2"/><rect x="34.6455078" y="38.6566772" width="1.9570313" height="2"/><rect x="39.8955078" y="38.6566772" width="1.9570313" height="2"/><rect x="45.1455078" y="38.6566772" width="1.9570313" height="2"/><path d="M46.8642731,44.6566925H19.1338024c-0.5527344,0-1,0.4472656-1,1s0.4472656,1,1,1h27.7304707c0.5527344,0,1-0.4472656,1-1   S47.4170074,44.6566925,46.8642731,44.6566925z"/><path d="M46.8642731,48.7406769H19.1338024c-0.5527344,0-1,0.4472656-1,1s0.4472656,1,1,1h27.7304707c0.5527344,0,1-0.4472656,1-1   S47.4170074,48.7406769,46.8642731,48.7406769z"/><path d="M46.8642731,52.8236847H19.1338024c-0.5527344,0-1,0.4472656-1,1s0.4472656,1,1,1h27.7304707c0.5527344,0,1-0.4472656,1-1   S47.4170074,52.8236847,46.8642731,52.8236847z"/></g></svg>