<svg xmlns="http://www.w3.org/2000/svg" xmlns:xlink="http://www.w3.org/1999/xlink" fill="#ffffff" version="1.1" x="0px" y="0px" viewBox="0 0 100 125" style="enable-background:new 0 0 100 100;" xml:space="preserve"><path d="M95.1,35v30.6h-5.8c1.2-1.1,1.9-2.7,1.9-4.5V39.2c0-3.5-2.8-6.3-6.3-6.3s-6.3,2.8-6.3,6.3v18.6l-18.5-1.4  c-1.3-0.1-2.6,0.4-3.6,1.2c-1,0.9-1.5,2.1-1.5,3.4v30.1c0,2.6,2.1,4.7,4.7,4.7c2.6,0,4.7-2.1,4.7-4.7v-25l3.4,0.3v29h4.2V69.7h23  v25.6h4.2V35H95.1z"/><rect x="26.4" y="46.5" width="47.5" height="5.2"/><circle cx="80.1" cy="22.8" r="8"/><path d="M40,56.4l-18.6,0.8v-18c0-3.5-2.8-6.3-6.3-6.3s-6.3,2.8-6.3,6.3v21.9c0,1.8,0.7,3.3,1.9,4.5H4.9V35H0.7v60.4  h4.2V69.7h23v25.6h4.2V66.1l3.4-0.1v25.2c0,2.6,2.1,4.7,4.7,4.7c2.6,0,4.7-2.1,4.7-4.7V61.1c0-1.3-0.5-2.5-1.5-3.4  C42.5,56.8,41.3,56.3,40,56.4z"/><circle cx="19.9" cy="22.8" r="8"/><path d="M50.1,4.3c-8.5,0-15.4,6.9-15.4,15.4s6.9,15.4,15.4,15.4c8.5,0,15.4-6.9,15.4-15.4S58.6,4.3,50.1,4.3z M50.1,32.8  C42.9,32.8,37,27,37,19.7c0-7.2,5.9-13.1,13.1-13.1c7.2,0,13.1,5.9,13.1,13.1C63.2,27,57.3,32.8,50.1,32.8z"/><path d="M50.1,11.1c-0.6,0-1.1,0.5-1.1,1.1v8.2c0,0.6,0.5,1.1,1.1,1.1h7.2c0.6,0,1.1-0.5,1.1-1.1s-0.5-1.1-1.1-1.1h-6  v-7.1C51.2,11.6,50.7,11.1,50.1,11.1z"/></svg>